<svg xmlns="http://www.w3.org/2000/svg" xmlns:xlink="http://www.w3.org/1999/xlink" version="1.1" id="Layer_1" x="0px" y="0px" width="100%" viewBox="0 0 1024 560" enable-background="new 0 0 1024 560" xml:space="preserve">
<path fill="#129c69" opacity="1.000000" stroke="none" d=" M446.648560,397.347107   C498.800568,430.695007 564.081787,415.031281 595.850464,382.183044   C595.262024,380.756104 593.964172,381.053131 592.875183,381.057251   C576.379761,381.119598 559.884399,381.206482 543.389221,381.313599   C542.237976,381.321075 541.010254,381.317261 539.955139,381.698181   C538.216919,382.325684 538.179932,383.960327 538.351379,385.492828   C538.607117,387.778351 540.361145,387.829407 542.084412,387.823334   C549.249695,387.798126 556.415039,387.756500 563.580322,387.731781   C564.912903,387.727203 566.249268,387.718628 567.577332,387.808655   C569.328308,387.927338 571.105347,388.352203 571.101257,390.508850   C571.097168,392.645599 569.351074,393.201569 567.585388,393.217468   C560.087402,393.284973 552.588684,393.275024 545.090271,393.291199   C543.133362,393.295410 541.176453,393.291809 539.569885,393.291809   C538.304871,395.412872 539.292664,396.815521 539.618835,398.192078   C540.395874,401.470795 540.337463,404.045624 536.362000,405.226532   C532.281067,406.438751 530.011230,405.224579 529.087097,401.058441   C524.871521,382.054474 528.397217,365.160614 542.264038,350.862549   C550.281494,342.595734 560.360718,337.325195 569.859497,331.192291   C576.691528,326.781281 583.524658,322.369781 588.985107,314.795349   C574.862732,314.795349 561.617065,314.795349 547.607483,314.795349   C550.334778,319.929718 554.646667,322.368683 558.617493,325.217499   C560.531677,326.590790 564.411560,327.135529 562.442871,330.897980   C560.600525,334.418884 554.201233,336.266571 551.611694,334.068420   C541.345764,325.354187 531.699890,315.860382 528.298523,302.365295   C523.069397,281.618622 528.382446,263.687805 544.516479,249.198166   C552.894714,241.673782 563.006714,236.742691 572.114380,230.317169   C574.392029,228.710297 576.695312,227.139786 580.345642,224.611343   C571.937195,224.231033 564.749634,225.115234 558.756592,220.504837   C559.883545,218.474228 561.885376,219.000900 563.580383,218.968124   C569.577820,218.852127 575.580627,218.728165 581.575500,218.865662   C585.747375,218.961365 588.608337,217.448517 590.307922,212.812057   C575.405090,212.812057 560.804382,212.812057 546.157349,212.812057   C545.577698,214.339996 546.434082,215.493286 547.364136,216.354599   C551.105103,219.818970 554.955200,223.165527 558.765442,226.555023   C560.547302,228.140091 564.505371,228.487793 562.585510,232.268295   C560.965698,235.457870 554.172363,237.074966 551.617554,234.901337   C543.055725,227.617065 535.329224,219.624527 530.974487,208.960236   C526.515198,198.039993 526.493591,186.972855 529.775269,175.784485   C530.764282,172.412674 532.208191,170.035126 536.539490,171.431320   C540.741455,172.785828 542.324829,175.014969 540.567139,179.257690   C540.134949,180.300980 539.968201,181.454208 539.606873,182.833862   C543.060486,184.542068 546.579102,183.608398 549.945312,183.716080   C555.272644,183.886520 560.609070,183.752563 565.940918,183.814545   C567.666626,183.834610 569.558838,184.181778 569.681641,186.291595   C569.825623,188.763519 567.746704,189.206268 565.876587,189.231277   C558.379028,189.331635 550.879639,189.285248 543.381348,189.343216   C541.103394,189.360809 538.350708,188.881363 538.317444,192.472778   C538.284058,196.073013 541.016479,195.654144 543.312561,195.657501   C558.643616,195.679962 573.974670,195.680481 589.305725,195.653809   C590.902588,195.651031 592.673889,196.028244 594.489014,193.626846   C575.837769,174.622726 553.057922,164.156097 526.960205,160.983582   C501.055969,157.834610 476.244019,161.597198 453.127472,174.649963   C430.274902,187.553665 413.204529,205.990570 401.166290,229.505798   C397.882538,226.730637 399.262085,225.085495 400.086121,223.586090   C420.117126,187.138245 450.241119,164.208313 491.549805,157.912079   C525.445435,152.745743 557.154419,159.446213 585.266907,180.069778   C588.379456,182.353165 591.103821,184.957657 593.443604,188.063904   C595.126953,190.298798 597.073792,190.692993 597.873291,187.204239   C598.225952,185.665207 598.841064,184.306152 600.154236,183.471420   C602.192444,182.175781 604.456543,181.412201 606.749451,182.689362   C608.793762,183.828003 608.614319,185.874283 608.659668,187.956650   C609.198975,212.745758 595.352600,228.487885 575.643738,240.475784   C567.674438,245.323074 559.450806,249.761154 552.364380,255.924393   C550.497498,257.548096 548.427429,259.036835 547.744751,262.201263   C561.529846,262.201263 575.148743,262.201263 589.365784,262.201263   C586.776489,256.520538 580.919006,254.580551 578.096191,250.061737   C582.559265,243.960495 586.166504,243.479385 591.076843,248.294846   C600.559021,257.593811 606.961060,268.062256 608.673218,281.924713   C611.348816,303.587799 602.111450,319.003998 586.366577,332.021118   C584.004822,333.973724 580.770935,335.048645 579.263855,338.597351   C583.470764,342.152130 588.252808,344.923431 591.950562,348.993164   C597.226013,354.799347 602.758240,360.397430 603.449585,368.850708   C603.552124,370.104553 604.328491,371.125580 605.569946,371.356293   C607.368103,371.690521 608.267822,370.217010 609.092346,369.021332   C615.238892,360.107941 621.391296,351.207672 625.232788,340.943451   C626.050049,338.759827 626.182007,334.392303 629.726562,335.882935   C632.371521,336.995239 630.117188,340.497620 629.191101,342.507324   C613.772339,375.967743 589.727173,400.388611 554.271240,412.170593   C515.392578,425.089905 478.057983,421.629547 443.089691,399.665710   C420.244781,385.316650 404.005249,365.235992 393.845154,340.256439   C393.209045,338.692474 391.681488,336.561127 394.206055,335.536407   C396.624390,334.554779 397.260712,336.982788 397.853638,338.608734   C406.560699,362.485046 422.211761,380.770325 443.030457,394.918793   C444.131866,395.667297 445.238525,396.408112 446.648560,397.347107  M564.500000,375.905426   C573.318542,375.859833 582.137085,375.822815 590.955505,375.761963   C592.895813,375.748566 594.700317,375.522369 594.642700,372.871307   C594.593323,370.597351 593.306580,369.602417 591.220642,369.375336   C590.560730,369.303436 589.891846,369.284119 589.227356,369.288513   C578.246033,369.360931 567.264404,369.417267 556.283508,369.536011   C553.536926,369.565704 550.819580,369.622345 547.899048,368.724640   C552.480835,363.959503 552.480896,363.831848 558.377014,363.834930   C567.854065,363.839844 577.341980,363.350891 586.806030,364.264618   C587.846130,364.365051 588.814636,364.305573 589.286682,363.145844   C586.891479,357.890137 586.116455,357.324188 580.809082,357.281219   C572.656982,357.215210 564.485413,357.516968 556.358704,357.040009   C550.922058,356.720978 547.792114,359.366821 545.756958,363.625916   C544.539612,366.173553 543.408936,368.594116 541.579834,370.831482   C539.173645,373.774628 540.224182,375.778595 544.031982,375.860870   C550.518677,376.001007 557.010376,375.903046 564.500000,375.905426  M586.446228,279.257843   C571.490540,279.279572 556.534851,279.308502 541.579163,279.315796   C539.157227,279.316956 537.229187,279.897064 537.151123,282.791077   C537.071899,285.725891 539.181335,285.784576 541.261353,285.784607   C559.042419,285.784882 576.823486,285.790497 594.604431,285.746185   C596.332886,285.741882 598.672241,286.138702 598.521729,283.287750   C598.393555,280.860352 597.101074,279.253723 594.400208,279.263550   C592.073914,279.272003 589.747498,279.259399 586.446228,279.257843  M576.500000,291.155304   C564.861755,291.152527 553.223450,291.128723 541.585327,291.169708   C539.848999,291.175842 537.490967,290.756897 537.428040,293.457764   C537.369080,295.989655 538.983948,297.430115 541.556580,297.455383   C545.707520,297.496216 549.868042,297.598450 554.009399,297.382935   C566.969604,296.708466 579.937622,296.798920 592.882202,297.368927   C597.305542,297.563690 598.545654,296.016174 598.287781,291.153870   C591.295288,291.153870 584.397583,291.153870 576.500000,291.155304  M564.500000,201.300049   C557.675415,201.297180 550.850708,201.273972 544.026306,201.306244   C542.390015,201.313965 540.460876,201.128128 540.317505,203.556274   C540.186768,205.771606 541.645752,206.902847 543.535034,207.413544   C544.634460,207.710739 545.845398,207.654938 547.006226,207.656387   C559.989624,207.672684 572.973083,207.695724 585.956238,207.640472   C587.763550,207.632782 589.581543,207.283951 591.372681,206.968246   C594.314575,206.449677 595.631653,204.776886 594.901550,201.301346   C585.044312,201.301346 575.272156,201.301346 564.500000,201.300049  M540.717957,304.359314   C541.684937,308.433319 544.303467,309.798737 548.405151,309.788666   C561.689941,309.755981 574.974976,308.537170 588.261841,309.726440   C590.112366,309.892120 592.012207,309.790405 593.429810,308.426453   C594.776428,307.130798 595.797729,305.384308 595.072021,303.550018   C594.404724,301.863556 592.531677,302.296082 591.077148,302.397522   C575.644958,303.473694 560.214355,303.492889 544.781006,302.432617   C543.309326,302.331512 541.733521,302.026215 540.717957,304.359314  M541.701599,273.528168   C559.552979,273.528168 577.404358,273.528168 595.500671,273.528168   C595.368347,269.701843 594.229614,267.621979 590.849426,267.606598   C575.900085,267.538666 560.952576,268.272919 545.998108,267.547272   C542.488342,267.376953 540.412476,269.257538 541.701599,273.528168  M559.397156,349.852997   C558.139099,350.994507 555.996643,351.631073 557.231873,354.875427   C563.512939,350.773102 570.611267,351.728607 578.004272,351.978729   C572.567261,343.945496 569.535950,343.174652 562.903076,347.534821   C561.928894,348.175201 560.946533,348.803162 559.397156,349.852997  z"/>
<path fill="#129c69" opacity="1.000000" stroke="none" d=" M810.230469,244.569244   C810.316711,272.835571 810.323792,300.662628 810.411682,328.489410   C810.424927,332.694031 809.246826,335.802856 804.544434,336.151642   C800.671387,336.438873 798.874268,333.916382 798.750610,328.649292   C798.697388,326.382538 799.414062,324.009094 797.951294,321.579956   C770.869568,344.439056 744.815125,344.208344 723.157654,315.250854   C709.719910,297.283661 711.024475,273.415619 725.653748,257.389282   C747.435120,233.527954 772.358032,233.115585 797.585388,253.482407   C799.664551,251.598129 798.697693,249.112930 798.774902,246.917618   C798.884766,243.796967 799.625977,241.288391 803.049744,240.493073   C806.424866,239.709061 808.970886,240.626511 810.230469,244.569244  M725.434387,290.042664   C727.613770,298.742950 729.551270,307.516663 736.110046,314.328430   C750.176636,328.937592 771.787415,329.859802 786.448425,317.094330   C801.967102,303.582062 802.781372,276.389832 790.935913,263.285675   C780.535339,251.779785 764.180847,247.295654 750.052612,252.625305   C735.454346,258.132294 725.452271,272.980682 725.434387,290.042664  z"/>
<path fill="#129c69" opacity="1.000000" stroke="none" d=" M316.507690,319.726349   C317.209320,323.348907 319.402039,326.132660 319.256409,329.636871   C319.140137,332.434601 319.051636,335.106995 315.777771,336.033936   C312.305267,337.017090 310.418610,334.988190 309.220062,332.147827   C306.117126,324.794434 302.921600,317.471191 300.135254,309.997101   C298.871429,306.607056 296.882172,305.067413 293.445496,305.390137   C276.468689,306.984222 259.496582,305.544067 242.524750,305.315887   C239.196533,305.271149 237.279297,306.509094 236.093216,309.581879   C233.582123,316.087402 230.888397,322.522827 228.235275,328.972900   C227.604919,330.505371 227.032623,332.117371 226.096161,333.456848   C224.126617,336.273956 221.264160,337.230530 218.230591,335.582977   C215.242264,333.960083 214.291641,331.262329 215.740173,327.914856   C220.364334,317.228821 224.950592,306.526306 229.527588,295.819946   C239.919479,271.511536 250.325958,247.209274 260.649872,222.872009   C262.228973,219.149445 263.980164,215.817764 268.647522,215.852127   C273.410950,215.887177 274.925934,219.553177 276.425262,223.168335   C289.725220,255.237518 303.030762,287.304382 316.507690,319.726349  M286.587311,276.852844   C280.135956,263.399963 274.929718,249.385864 268.307983,235.668198   C260.014496,255.449005 250.808258,274.403625 242.773697,294.189789   C259.844635,294.189789 276.332458,294.189789 293.441925,294.189789   C291.835297,287.946808 288.912537,282.917023 286.587311,276.852844  z"/>
<path fill="#129c69" opacity="1.000000" stroke="none" d=" M443.401428,251.194275   C445.063477,254.596344 446.391876,252.131989 447.419891,251.077972   C464.137451,233.937576 495.956787,235.374207 511.745972,257.820160   C518.491272,267.409241 519.711182,278.428711 519.843689,289.663544   C519.994934,302.492493 519.953796,315.324554 519.888977,328.154724   C519.862183,333.453827 517.541443,336.339020 513.787415,336.214203   C509.949615,336.086639 507.918213,333.327820 507.908173,327.945862   C507.880524,313.115601 507.538574,298.273071 508.021240,283.458191   C508.560822,266.897034 495.880859,252.747452 479.891693,250.464203   C465.168060,248.361664 449.808380,258.551422 444.947021,273.749664   C444.305847,275.754242 444.315857,278.020111 444.308441,280.165924   C444.254272,295.829285 444.277466,311.492950 444.260773,327.156494   C444.259186,328.652740 444.418243,330.220795 444.037689,331.629913   C443.267975,334.480072 441.263977,336.109283 438.236206,336.221191   C435.338074,336.328247 434.098450,334.521332 433.566376,331.982056   C431.764740,323.383484 433.001282,314.707184 433.240967,306.098907   C433.416901,299.779022 434.135742,293.408691 433.546387,287.141663   C432.391144,274.857269 434.165955,262.549408 432.803223,250.291397   C432.620758,248.649994 432.622437,246.928665 432.903259,245.307480   C433.506256,241.826508 435.762299,240.093384 439.272003,240.365143   C442.623596,240.624695 444.306091,242.571167 444.322388,245.990311   C444.330475,247.687408 444.106293,249.304901 443.401428,251.194275  z"/>
<path fill="#129c69" opacity="1.000000" stroke="none" d=" M391.559143,239.818832   C409.193939,243.387711 420.612793,253.303146 425.571350,270.282562   C426.074249,272.004639 426.138550,273.885620 426.203369,275.700073   C426.809418,292.671204 425.505249,309.670410 426.952942,326.634521   C427.090973,328.252045 426.657410,329.934875 426.375366,331.567719   C425.954346,334.005402 424.426300,335.374664 421.985779,335.647430   C419.277283,335.950165 417.618927,334.548553 416.514923,332.206726   C415.616974,330.302094 415.820343,328.297668 415.818115,326.312134   C415.801605,311.486420 415.768280,296.660583 415.810791,281.834991   C415.848419,268.707520 409.989532,258.847168 398.334747,253.318359   C387.143097,248.009262 375.787628,249.157639 365.794098,256.775085   C358.636658,262.230804 354.204468,269.620941 354.138550,278.931580   C354.025360,294.922455 354.123199,310.914795 354.119385,326.906525   C354.118896,329.063293 354.414062,331.333099 353.183075,333.244080   C351.703156,335.541534 349.408112,336.674286 346.734741,336.042053   C343.243652,335.216492 341.955170,332.339203 342.165314,329.174255   C342.684692,321.352020 342.778259,313.534363 342.445312,305.717590   C341.721710,288.728851 342.366364,271.758911 342.919281,254.785446   C343.036041,251.200943 341.455109,247.685989 343.260223,243.989624   C344.834991,240.764923 347.089050,239.729706 350.083679,240.905716   C352.930145,242.023529 354.702271,244.210449 353.315277,247.642044   C352.829773,248.843201 351.993683,250.053482 353.974152,252.100464   C364.346954,242.522278 376.875183,238.346558 391.559143,239.818832  z"/>
<path fill="#129c69" opacity="1.000000" stroke="none" d=" M624.119873,259.940613   C631.170715,275.754456 638.074707,291.216919 644.869202,306.727325   C645.788940,308.826935 647.195251,310.786346 647.216309,313.251617   C647.229675,314.821503 647.616394,316.383209 649.502014,316.603912   C651.617126,316.851440 652.272278,315.227234 652.873840,313.594208   C658.107605,299.386353 665.098755,285.937836 670.880432,271.965942   C674.503479,263.210480 678.244812,254.502838 681.763977,245.706116   C683.158264,242.220825 685.112732,239.794189 689.153564,240.616669   C693.521423,241.505722 692.289429,245.223129 692.175720,247.961304   C691.927734,253.933380 688.671692,259.003143 686.388672,264.292603   C676.904053,286.267029 667.140686,308.121155 657.479492,330.019409   C656.114075,333.114197 654.795471,336.187103 650.634705,336.335907   C646.382568,336.487976 644.956177,333.417175 643.612671,330.330170   C634.991394,310.521393 625.323547,291.181396 617.298706,271.101044   C614.406921,263.865082 610.756592,256.934296 607.521362,249.832840   C605.361938,245.092957 606.141968,242.053543 609.722229,240.640579   C613.562256,239.125107 616.322388,240.914948 618.211975,245.820389   C619.999756,250.461655 622.020386,255.013260 624.119873,259.940613  z"/>
<path fill="#129c69" opacity="1.000000" stroke="none" d=" M337.286377,304.000061   C337.286743,312.828705 337.339508,321.157806 337.268799,329.485840   C337.218384,335.423920 335.748749,336.521271 328.481079,336.413818   C322.335602,336.322937 320.958344,335.024292 320.962463,329.178680   C320.987061,294.365295 321.014526,259.551880 321.066803,224.738541   C321.078461,216.974976 327.066101,213.446472 334.229248,216.811340   C337.522949,218.358536 337.304718,221.194931 337.303772,224.044495   C337.295074,250.529678 337.291229,277.014862 337.286377,304.000061  z"/>
<path fill="#129c69" opacity="1.000000" stroke="none" d=" M708.275513,279.017853   C708.269714,296.508301 708.216370,313.501862 708.290527,330.494843   C708.307922,334.483673 707.666687,337.395874 702.692383,337.336914   C697.361694,337.273712 695.845215,336.182648 695.812317,330.605927   C695.693604,310.448059 695.806824,290.288696 695.649292,270.131317   C695.609863,265.080627 698.613464,264.526550 702.453979,264.400024   C706.422791,264.269287 708.368774,265.987762 708.266296,270.024475   C708.194397,272.854645 708.266541,275.688538 708.275513,279.017853  z"/>
<path fill="#129c69" opacity="1.000000" stroke="none" d=" M419.908875,357.104309   C430.730316,372.814362 444.737610,384.267761 461.243988,392.888306   C477.375122,401.312866 494.945343,404.256439 513.054382,405.278259   C512.821472,406.213013 512.588562,407.147766 512.355713,408.082489   C492.098358,409.091003 473.270538,403.473724 455.480835,393.852936   C432.834045,381.605377 405.589905,349.786896 405.377716,335.646027   C408.025574,334.807129 408.623901,336.686676 409.506348,338.533936   C412.517395,344.836914 415.676239,351.068176 419.908875,357.104309  z"/>
<path fill="#129c69" opacity="1.000000" stroke="none" d=" M446.205078,192.219162   C433.199890,201.670395 423.209717,213.353394 415.152222,226.771637   C411.987274,232.042206 411.971680,232.032852 408.921631,232.629944   C410.519592,203.134445 487.243256,156.225525 513.167786,169.097366   C512.496094,171.905304 510.138611,171.193649 508.371887,171.223129   C492.669769,171.485153 477.717743,174.846741 463.558868,181.708313   C457.547211,184.621628 451.851807,188.028870 446.205078,192.219162  z"/>
<path fill="#129c69" opacity="1.000000" stroke="none" d=" M697.072388,252.032959   C693.625793,248.347321 694.305847,244.240143 695.552429,240.537262   C696.629028,237.339279 700.073792,237.699768 702.910706,237.704453   C706.638550,237.710632 708.797546,239.268173 709.007629,243.311020   C709.350647,249.912079 708.312683,252.012177 703.789734,252.877838   C701.605774,253.295868 699.484741,253.159103 697.072388,252.032959  z"/>
</svg>